# xmcd
#
# Track frame offsets:
#	150
#	16283
#	29800
#	52885
#	67945
#	89508
#	108678
#	127078
#	140390
#	153405
#	170255
#
# Disc length: 2457 seconds
#
# Revision: 2
# Processed by: cddbd v1.5.2PL0 Copyright (c) Steve Scherf et al.
# Submitted via: EasyCDDAExtractor 16.0.6.1
#
DISCID=9409970b
DTITLE=Kenny Rogers - C-024 The Gambler
DYEAR=1978
DGENRE=Country
TTITLE0=The Gambler
TTITLE1=I Wish That I Could Hurt That Way Again
TTITLE2=The King of Oak Street
TTITLE3=Making Music for Money
TTITLE4=The Hoodooin' of Miss Fannie Deberry
TTITLE5=She Believes in Me
TTITLE6=Tennessee Bottle
TTITLE7=Sleep Tight, Goodnight Man
TTITLE8=A Little More Like Me (The Crucifixion)
TTITLE9=San Francisco Mabel Joy
TTITLE10=Morgana Jones
EXTD=JEK    Dreamcatcher Records DCR 902-2 c.78 c.2001
EXTT0=
EXTT1=
EXTT2=
EXTT3=
EXTT4=
EXTT5=
EXTT6=
EXTT7=
EXTT8=
EXTT9=
EXTT10=
PLAYORDER=
